<svg xmlns="http://www.w3.org/2000/svg" viewBox="0 0 400.19 300.19"><defs><style>.cls-1{fill:#fdfdfd;}.cls-2{fill:#0a0807;}.cls-3{fill:#0a0a0a;}.cls-4{fill:#f48422;}.cls-5{fill:#f1801e;}.cls-6{fill:#fafafa;}</style></defs><title>Ресурс 1</title><g id="Слой_2" data-name="Слой 2"><g id="Слой_1-2" data-name="Слой 1"><path class="cls-1" d="M200.5,301q-97.75,0-195.5.1c-3.42,0-4.1-.67-4.1-4.1Q1.08,151,.9,5C.9,1.58,1.58.9,5,.9q196,.17,392,0c3.42,0,4.1.67,4.1,4.09q-.18,146,0,292c0,3.42-.67,4.1-4.1,4.1Q298.75,300.9,200.5,301Zm-66.35-73.69c1.48,1.19,2.34,1.9,3.22,2.59a172.53,172.53,0,0,0,47.16,26.51c3.62,1.34,4.17.49,4.05-2.94-.37-10.64-.32-21.31-.78-31.95-.77-18-5.73-34.38-18.89-47.5A189.33,189.33,0,0,0,151,158.1c-15.07-11.63-17.85-30.55-6.9-46a68.84,68.84,0,0,0,5.62-9.4c2.53-5.16,5-6.16,10-3.24,2,1.13,4.1,2.56,6,1.13,2.85-2.19,3.42-.28,4.53,1.63,6.81,11.75,16.67,20.13,28.82,26a5.65,5.65,0,0,0,5.59.15,70.69,70.69,0,0,0,21.24-15.48c11.94-13.06,16.33-29,17.6-46.13a10.11,10.11,0,0,1,2.32-6.28c6.67-8,8.24-17.12,3.81-26.56S237.49,19.63,227,19.47a12.27,12.27,0,0,1-5.28-1c-31.29-14.66-62.91,6.38-61.64,40.84a140.2,140.2,0,0,0,4.14,29.67c-4.42-1.8-7.65.05-11,1.89.16-13.78-.33-16.86-4-25.63-1.75,1.23-2.24,3.24-3.16,4.92C135.68,89,115.12,96.41,95.32,88.1c-2.89-1.21-4-.38-5.59,1.73q-15.34,20.63-30.91,41.09c-1.7,2.23-1.75,3.25.78,4.8a24.44,24.44,0,0,0,34.35-9.45c.68-1.31.61-3.25,2.69-3.92a61,61,0,0,1-1,43.53c-2.19-1.9-2.87-4.36-4-6.51-3.08-5.81-6.58-7.1-12.88-4.68a15,15,0,0,0-7.86,6.57c-2.69,4.59-5.57,9.06-8.24,13.66-4.85,8.33-3,17.41,4.32,21.91,7.92,4.85,16.93,2.26,22.21-6.25,2.05-3.31,3.55-7,6.56-10.23,3.39,8,11.1,13.34,7.92,24.23-2.42,8.29-.61,17.86-.44,26.85a14.86,14.86,0,0,0,14.7,14.63C127.76,246.31,133.18,240.32,134.16,227.31Zm174.52-46.46c2.45,4.1,4.62,8,7.07,11.77A15.35,15.35,0,0,0,342,176.76c-2.85-5.07-5.91-10-9-15a15.25,15.25,0,0,0-12.83-7.46c-3.2-.18-5.68.65-7.08,4.07-1.5,3.67-3.71,7.05-5.39,10.66-1.34,2.89-2.89,2.59-4.91.84a11.56,11.56,0,0,1-3.93-6.74c-1.22-6.12,1.77-10.63,5.59-14.76,6.06-6.56,13.45-11.35,21.28-15.49,7.33-3.88,7.37-3.82,5.27-12.11a24.45,24.45,0,0,0-1.24-4.3c-3.28-7.08-7.74-13.81-5.87-22.26.13-.57-.3-1.27-.51-1.9-3-9-7.11-10.88-15.2-6.38-3.26,1.81-6.12,2.36-9.8,1.09-5-1.74-10.54-2.92-15.72-1.55-8.67,2.29-15.86.2-22.38-5.46-.25-.21-.61-.3-.85-.52-2.31-2.21-3.94-1.2-5.66.92-5,6.13-5.25,14.69-.34,22.89,2.22,3.7,5,7,7.32,10.7,9.74,15.51,6.63,33.15-7.66,44.49-4.3,3.41-8.5,7-12.61,10.61-13.87,12.32-22.31,27.38-23.81,46.2-1,13-1.14,25.93-1.36,38.91-.07,3.94,1.14,3.89,4.21,2.71a174.29,174.29,0,0,0,45.52-25.41c1.5-1.18,2.77-2.79,4.91-3.25,0,.8.11,1.45.13,2.11.24,9.76,6.7,16.58,15.6,16.45s15.1-7.09,15.11-16.92c0-7.83,1.79-16.21-.41-23.37-3.35-10.85,3.24-17.2,7.54-24.91A8.42,8.42,0,0,1,308.68,180.85Zm-106.42,6.47c-7.06-13.39-19.43-21.07-30.2-30.38-3.4-2.94-6.9-5.77-10.23-8.79-4.66-4.23-6.3-9.69-5.73-15.81.65-7,4.58-10.86,11.17-11.15a5.38,5.38,0,0,0,5.39-4.34,5,5,0,0,0-2.61-5.91c-2.46-1.44-5.07-1.28-6.76.95-1.57,2.07-3.64,3.32-5.54,4.88A20.84,20.84,0,0,0,150,131.35c-.92,9.45,2.11,17.26,9.36,23.55,9.81,8.51,20.36,16.14,29.66,25.26,6.21,6.1,9.9,13.34,10,22.13.14,17.33.07,34.66.25,52,0,2.57-.75,3.66-3.13,4.63a15.65,15.65,0,0,0-9.92,17.59,16.07,16.07,0,0,0,31.47.49A15.71,15.71,0,0,0,208.3,259c-2.33-1-3.2-2-3.18-4.63.13-16.5,0-33,.08-49.5,0-9.95,3.45-18.41,10.82-25.38,9.46-8.94,19.81-16.8,29.73-25.17,12-10.16,12.11-32.07-1.84-39.42-1.26-.67-1.84-1.86-2.7-2.85a5.1,5.1,0,0,0-6.73-1.27c-2.59,1.32-3.43,3.5-2.75,6.26s2.74,4.54,5.46,4c5.41-1.09,7.63,2.45,9.57,6.13,3.53,6.7,1.56,15.89-4.61,21.36-5.73,5.08-11.76,9.82-17.62,14.75C216.27,170.26,207.6,176.86,202.25,187.32ZM275.74,35.84c-5.09.07-8.39,2.33-9.85,6.56-1.58,4.57,0,8.16,3.66,10.91,6.39,4.77,12.87,9.41,19.28,14.15,1.26.93,2.25,1.72,3.9.49,6.9-5.18,14-10.09,20.81-15.42,3.26-2.56,4.21-6.27,2.67-10.35s-4.49-6-8.69-6.33a12.43,12.43,0,0,0-8.75,2.82c-7.6,5.62-7.68,5.59-15.16.15C281.11,37,278.62,35.47,275.74,35.84ZM97,35.82c-5.13,0-8.39,2.19-9.95,6.55S86.79,50.32,90.32,53c6.62,5,13.37,9.84,20,14.77,1.19.88,2.19,1.15,3.53.15,6.93-5.15,14-10.08,20.83-15.39,3.3-2.57,4.18-6.34,2.65-10.35a9.26,9.26,0,0,0-8.68-6.35,12,12,0,0,0-8,2.21c-2.82,2-5.41,5.77-8.54,5.46S106.4,40,103.57,38A10,10,0,0,0,97,35.82Zm90,96c-4.68-.09-8.18,2.06-9.7,6.36s-.56,8.23,3.32,11.08c6.55,4.81,13.18,9.54,19.66,14.44,1.69,1.28,2.84,1,4.35-.13,6.27-4.65,12.65-9.13,18.88-13.83,4.86-3.66,6-9.14,3-13.52a10.7,10.7,0,0,0-14.18-3,30.13,30.13,0,0,0-6,4.35c-2.86,2.8-5.16,2.28-8-.06C195,134.88,191.9,131.59,187.06,131.84Z" transform="translate(-0.9 -0.9)"/><path class="cls-2" d="M134.16,227.31c-1,13-6.4,19-16.27,18.75a14.86,14.86,0,0,1-14.7-14.63c-.17-9-2-18.56.44-26.85,3.18-10.89-4.53-16.2-7.92-24.23-3,3.23-4.51,6.92-6.56,10.23-5.28,8.51-14.29,11.1-22.21,6.25-7.35-4.49-9.18-13.57-4.32-21.91,2.68-4.59,5.56-9.07,8.24-13.66a15,15,0,0,1,7.86-6.57c6.3-2.42,9.8-1.13,12.88,4.68,1.14,2.16,1.82,4.61,4,6.51a61,61,0,0,0,1-43.53c-2.08.67-2,2.61-2.69,3.92a24.44,24.44,0,0,1-34.35,9.45c-2.53-1.55-2.48-2.57-.78-4.8q15.61-20.43,30.91-41.09c1.57-2.11,2.7-2.94,5.59-1.73,19.79,8.31,40.36.89,50.73-18,.92-1.68,1.42-3.69,3.16-4.92,3.67,8.77,4.15,11.85,4,25.63,3.34-1.84,6.58-3.7,11-1.89a140.2,140.2,0,0,1-4.14-29.67c-1.28-34.46,30.34-55.5,61.64-40.84a12.27,12.27,0,0,0,5.28,1c10.51.16,18.27,5.06,22.65,14.43s2.85,18.58-3.81,26.56a10.11,10.11,0,0,0-2.32,6.28c-1.27,17.12-5.66,33.07-17.6,46.13a70.69,70.69,0,0,1-21.24,15.48,5.65,5.65,0,0,1-5.59-.15c-12.15-5.88-22-14.26-28.82-26-1.11-1.91-1.68-3.81-4.53-1.63-1.86,1.42-4,0-6-1.13-5.06-2.92-7.49-1.92-10,3.24a68.84,68.84,0,0,1-5.62,9.4c-10.95,15.48-8.17,34.4,6.9,46A189.33,189.33,0,0,1,168.92,174c13.17,13.12,18.13,29.51,18.89,47.5.45,10.64.41,21.3.78,31.95.12,3.43-.43,4.28-4.05,2.94a172.53,172.53,0,0,1-47.16-26.51C136.49,229.21,135.63,228.5,134.16,227.31Zm-25-9.46q0,4.75,0,9.5c0,.83,0,1.67,0,2.5.29,5.82,4,9.92,9,10.12s9.27-3.73,9.53-9.52c.31-6.82.11-13.66.11-20.49,0-2,.41-3.81,2.83-3.87s3.14,1.55,3.2,3.63a49.08,49.08,0,0,1,0,5.49,6.13,6.13,0,0,0,2.47,5.59,166,166,0,0,0,42.13,26.41c2.8,1.22,3.86,1,3.74-2.34-.25-6.82-.14-13.66-.38-20.48-.63-18.2-5.24-34.81-19-47.87a9.45,9.45,0,0,0-8-2.83c-6,.46-9.94,3.14-11.77,9-2.33,7.44-7.52,11.55-15.22,12.49-2.64.32-5.28.69-7.93.81-7.29.35-10.54,3.56-10.69,10.87C109.12,210.51,109.18,214.18,109.18,217.85ZM146.76,81c-14.42,15.22-31,20.45-50.69,14.23-2.49-.79-3.13,1.1-4.3,2.42-1.87,2.11.08,3.28,1.08,4.66,13.47,18.68,17.53,39.33,9.92,61-3.2,9.1-2.14,15.66,3.38,22.54,1,1.29,1.8,2.8,2.79,4.14.53.73.95,2.1,2.17,1.53,5.64-2.64,11.9-1,17.66-2.7,3.52-1,6.57-2.83,7.68-6.49,2.39-7.83,6.76-13.47,16.75-14.61-19.64-13.24-26.41-30-19-52l-7.94,1.93c-2.2.52-4.28.24-4.66-2.3-.34-2.3,1.58-2.84,3.53-3.29C141.7,108.26,148.42,98.83,146.76,81Zm90-13.75c-9.93,3.51-19,2.08-26.84-5.05-1.81-1.65-2.89-.71-4.29.13a51.79,51.79,0,0,1-35.92,7.06c-2.41-.39-2.9.24-2.63,2.46,2.67,21.84,12.3,39.09,32.36,49.59a4.8,4.8,0,0,0,4.64.24C223,113.47,238,88.57,236.74,67.21Zm-22-45a33.05,33.05,0,0,0-20.18-1.68c-16.41,3.64-29,16.94-28.4,39.22.05,2,.86,2.93,2.89,3.31,11.83,2.23,22.79,0,33.14-6,1.73-1,2.3-2.09,1.63-4C199.41,40.22,203.84,30.36,214.77,22.24ZM227,62.82c10.22,0,18.9-8.61,18.82-18.68a18.78,18.78,0,0,0-37.56-.1C208.1,54,216.88,62.82,227,62.82ZM75.13,193a9,9,0,0,0,7.58-4.09c1.43-2,2.34-4.47,3.93-6.34,5.1-6,5.11-11.61.59-18.13-3.51-5.05-6.67-5.91-10.28-.74a138.57,138.57,0,0,0-10,16.65C64,186.13,68.68,193,75.13,193Zm11.12-88.11c-6.2,8.32-12.29,16.58-18.49,24.76-1.72,2.27-.44,2.77,1.47,3.21,6.48,1.52,14.62-2.12,18.43-8.27S91,110.92,86.25,104.88Z" transform="translate(-0.9 -0.9)"/><path class="cls-2" d="M308.68,180.85a8.42,8.42,0,0,0-.7.8c-4.29,7.71-10.88,14.06-7.54,24.91,2.21,7.15.43,15.53.41,23.37,0,9.83-6.24,16.79-15.11,16.92s-15.36-6.69-15.6-16.45c0-.66-.08-1.31-.13-2.11-2.14.47-3.41,2.07-4.91,3.25A174.29,174.29,0,0,1,219.59,257c-3.07,1.18-4.27,1.23-4.21-2.71.22-13,.32-25.95,1.36-38.91,1.5-18.83,9.93-33.88,23.81-46.2,4.11-3.65,8.31-7.2,12.61-10.61,14.29-11.34,17.41-29,7.66-44.49-2.3-3.66-5.1-7-7.32-10.7-4.91-8.19-4.62-16.76.34-22.89,1.72-2.12,3.35-3.13,5.66-.92.23.22.6.3.85.52,6.52,5.66,13.72,7.75,22.38,5.46,5.19-1.37,10.69-.19,15.72,1.55,3.68,1.27,6.54.72,9.8-1.09,8.09-4.5,12.2-2.66,15.2,6.38.21.63.63,1.33.51,1.9-1.86,8.45,2.6,15.18,5.87,22.26a24.45,24.45,0,0,1,1.24,4.3c2.1,8.29,2.07,8.23-5.27,12.11-7.83,4.14-15.22,8.94-21.28,15.49-3.82,4.13-6.8,8.64-5.59,14.76a11.56,11.56,0,0,0,3.93,6.74c2,1.74,3.57,2,4.91-.84,1.68-3.61,3.88-7,5.39-10.66,1.4-3.42,3.88-4.25,7.08-4.07a15.25,15.25,0,0,1,12.83,7.46c3.05,5,6.11,9.9,9,15a15.35,15.35,0,0,1-26.28,15.86C313.3,188.87,311.13,184.95,308.68,180.85Zm-57.07-13.1c11.28,4.22,12.39,5.42,15.83,15.08a9.09,9.09,0,0,0,4,5c6.78,3.92,14.86,1.25,21.81,4.28,3.85-3.36,5.69-8.1,8.44-12.22.09-.14.16-.3.26-.43,1-1.35.63-2.06-.73-3.13-10.56-8.24-11.74-19.42-3.28-29.85,5.21-6.42,11.73-11.3,18.75-15.55,10.29-6.23,10.5-7,4.74-17.82a20.89,20.89,0,0,0-2.36-3.81c-2.29-2.69-3.36-5.12-1.54-8.86a7.89,7.89,0,0,0-2.23-9.59c-2.32-1.84-4.6.86-6.54,2-3.41,2-6.37,2.61-10.22.85A25.81,25.81,0,0,0,281.88,92c-8.32,2-15.57,1.1-22-4.74-1.85-1.67-2.75-.76-3.28,1.37-1.2,4.8.63,8.86,3.06,12.7,2.14,3.37,4.7,6.48,6.78,9.88,11.07,18,7.27,39.16-9.3,52.21Zm-29.78,81.42c15.58-6.06,29-14.48,41.66-24.24,4.65-3.58,7.9-7.31,6.71-13.64-.42-2.26.15-4.53,3.24-4.4,2.89.12,2.73,2.37,2.74,4.39,0,6.32-.13,12.65.05,19s4.09,10.39,9.26,10.4,9.18-4.27,9.3-10.34c.15-7.82.18-15.64,0-23.46-.17-6.67-3.61-10.13-10.34-10.19-11.8-.1-21.08-3.21-24.81-16.16-1.71-6-12.79-8.61-16.86-4.76-5.58,5.28-10.55,11.07-13.88,18.1C220.57,211.36,222.2,230.07,221.82,249.17ZM338,185.09c0-4.2-10.71-21.84-14-23.49-2.79-1.4-4.94-1.33-6.36,2-1.22,2.89-2.92,5.58-4.37,8.38-.51,1-1.34,1.86-.51,3.18,3.25,5.2,6.13,10.67,9.73,15.62,2.2,3,5.81,3.62,9.48,2.18A9.24,9.24,0,0,0,338,185.09Z" transform="translate(-0.9 -0.9)"/><path class="cls-3" d="M202.25,187.32c5.35-10.46,14-17.06,22.29-24,5.86-4.93,11.89-9.67,17.62-14.75,6.17-5.47,8.15-14.67,4.61-21.36-1.94-3.68-4.17-7.22-9.57-6.13-2.73.55-4.77-1.16-5.46-4s.16-4.93,2.75-6.26a5.1,5.1,0,0,1,6.73,1.27c.86,1,1.43,2.18,2.7,2.85,14,7.35,13.88,29.26,1.84,39.42-9.92,8.37-20.27,16.23-29.73,25.17-7.37,7-10.79,15.43-10.82,25.38-.06,16.5,0,33-.08,49.5,0,2.59.85,3.62,3.18,4.63A15.71,15.71,0,0,1,217.63,277a16.07,16.07,0,0,1-31.47-.49,15.65,15.65,0,0,1,9.92-17.59c2.39-1,3.16-2.06,3.13-4.63-.18-17.33-.11-34.66-.25-52-.07-8.78-3.76-16-10-22.13-9.29-9.12-19.85-16.74-29.66-25.26-7.25-6.29-10.29-14.1-9.36-23.55a20.84,20.84,0,0,1,7.77-14.57c1.91-1.56,4-2.81,5.54-4.88,1.69-2.23,4.3-2.39,6.76-.95a5,5,0,0,1,2.61,5.91,5.38,5.38,0,0,1-5.39,4.34c-6.58.29-10.52,4.15-11.17,11.15-.57,6.12,1.08,11.58,5.73,15.81,3.32,3,6.82,5.85,10.23,8.79C182.83,166.25,195.2,173.93,202.25,187.32Zm3.38,77.53c-1,2.28.07,3.59,1.19,5.16,2.14,3,1.67,6.06-1.21,8.38a5.51,5.51,0,0,1-7.71-.33c-2.7-2.52-2.8-5.65-.49-8.45,1.25-1.52,2.36-2.72,1.31-4.73-4.89,2.08-7.25,5.91-6.4,10.37a9.69,9.69,0,0,0,9,7.9c5,.23,8.63-2.35,10-7.19C212.65,271.4,211,267.94,205.64,264.85Z" transform="translate(-0.9 -0.9)"/><path class="cls-4" d="M275.74,35.84c2.89-.36,5.38,1.17,7.86,3,7.49,5.43,7.56,5.47,15.16-.15a12.43,12.43,0,0,1,8.75-2.82c4.21.35,7.18,2.32,8.69,6.33s.59,7.79-2.67,10.35c-6.79,5.33-13.91,10.24-20.81,15.42-1.65,1.24-2.64.45-3.9-.49-6.41-4.74-12.89-9.38-19.28-14.15-3.68-2.75-5.25-6.34-3.66-10.91C267.35,38.16,270.65,35.9,275.74,35.84Z" transform="translate(-0.9 -0.9)"/><path class="cls-4" d="M97,35.82A10,10,0,0,1,103.57,38c2.83,2,5.59,5.22,8.62,5.52S117.91,40,120.73,38a12,12,0,0,1,8-2.21,9.26,9.26,0,0,1,8.68,6.35c1.53,4,.65,7.78-2.65,10.35-6.8,5.31-13.9,10.23-20.83,15.39-1.34,1-2.34.72-3.53-.15C103.7,62.84,96.94,58,90.32,53c-3.54-2.68-4.77-6.39-3.26-10.62S91.88,35.78,97,35.82Z" transform="translate(-0.9 -0.9)"/><path class="cls-4" d="M187.06,131.85c4.84-.25,8,3,11.27,5.69,2.89,2.34,5.19,2.85,8,.06a30.13,30.13,0,0,1,6-4.35,10.7,10.7,0,0,1,14.18,3c2.94,4.39,1.82,9.86-3,13.52-6.23,4.69-12.61,9.18-18.88,13.83-1.51,1.12-2.66,1.41-4.35.13-6.49-4.91-13.11-9.63-19.66-14.44-3.88-2.85-4.82-6.85-3.32-11.08S182.38,131.75,187.06,131.85Z" transform="translate(-0.9 -0.9)"/><path class="cls-5" d="M109.18,217.85c0-3.67-.06-7.33,0-11,.15-7.3,3.41-10.52,10.69-10.87,2.65-.13,5.29-.49,7.93-.81,7.7-.95,12.9-5.06,15.22-12.49,1.83-5.85,5.75-8.53,11.77-9a9.45,9.45,0,0,1,8,2.83c13.75,13.06,18.36,29.67,19,47.87.24,6.82.14,13.66.38,20.48.12,3.32-.94,3.56-3.74,2.34a166,166,0,0,1-42.13-26.41,6.13,6.13,0,0,1-2.47-5.59,49.08,49.08,0,0,0,0-5.49c-.06-2.07-.89-3.68-3.2-3.63s-2.83,1.86-2.83,3.87c0,6.83.2,13.67-.11,20.49-.26,5.79-4.5,9.71-9.53,9.52s-8.7-4.3-9-10.12c0-.83,0-1.67,0-2.5Q109.18,222.59,109.18,217.85Z" transform="translate(-0.9 -0.9)"/><path class="cls-5" d="M146.76,81c1.66,17.87-5.06,27.3-21.62,31.06-2,.44-3.87,1-3.53,3.29.38,2.54,2.47,2.82,4.66,2.3l7.94-1.93c-7.41,21.94-.65,38.73,19,52-10,1.14-14.36,6.79-16.75,14.61-1.11,3.66-4.17,5.47-7.68,6.49-5.76,1.67-12,.06-17.66,2.7-1.22.57-1.64-.8-2.17-1.53-1-1.34-1.75-2.85-2.79-4.14-5.52-6.88-6.58-13.44-3.38-22.54,7.61-21.64,3.55-42.29-9.92-61-1-1.39-3-2.56-1.08-4.66,1.17-1.32,1.82-3.2,4.3-2.42C115.75,101.41,132.34,96.18,146.76,81ZM114.5,110c-.34-2.87-1.9-4.61-4.84-4.49a4.17,4.17,0,0,0-4.33,4.46c0,2.9,1.9,4.6,4.79,4.49C112.76,114.35,114.26,112.68,114.5,110Z" transform="translate(-0.9 -0.9)"/><path class="cls-6" d="M236.74,67.21C238,88.57,223,113.47,204.07,121.64a4.8,4.8,0,0,1-4.64-.24c-20.07-10.5-29.69-27.75-32.36-49.59-.27-2.21.22-2.84,2.63-2.46a51.79,51.79,0,0,0,35.92-7.06c1.39-.84,2.48-1.78,4.29-.13C217.73,69.29,226.81,70.73,236.74,67.21Zm-34.62,39.66a31,31,0,0,0,17.72-6.36c1.86-1.47,3.41-3.2,1.71-5.42s-3.68-1-5.6.39c-9.44,6.75-18.44,6.71-28-.08C186,94,184,92.8,182.36,95.22s0,4,1.87,5.42A31.1,31.1,0,0,0,202.12,106.87Zm17.37-20c3.24-.51,5.14-2.29,4.94-5.62-.18-3.12-2.18-4.76-5.23-4.68s-5,1.93-5,5C214.21,84.86,216.28,86.54,219.49,86.88Zm-30.29-5.5c0-3-1.84-4.76-4.9-4.82s-5.15,1.69-5.23,4.83c-.09,3.32,1.87,5.43,5.21,5.36C187.27,86.69,189.19,84.94,189.2,81.38Z" transform="translate(-0.9 -0.9)"/><path class="cls-5" d="M214.77,22.24c-10.94,8.13-15.37,18-10.92,30.83.67,1.95.1,3-1.63,4-10.35,5.93-21.31,8.21-33.14,6-2-.38-2.84-1.33-2.89-3.31-.6-22.27,12-35.57,28.4-39.22A33.05,33.05,0,0,1,214.77,22.24Z" transform="translate(-0.9 -0.9)"/><path class="cls-6" d="M227,62.82c-10.11,0-18.89-8.8-18.74-18.78a18.78,18.78,0,0,1,37.56.1C245.89,54.21,237.22,62.82,227,62.82Zm.27-13.64c3-.34,4.8-2,4.7-5.18a4.95,4.95,0,0,0-9.89.18C222.07,47.28,224,49,227.27,49.18Z" transform="translate(-0.9 -0.9)"/><path class="cls-5" d="M75.13,193c-6.45,0-11.1-6.85-8.16-12.65a138.57,138.57,0,0,1,10-16.65c3.61-5.17,6.76-4.31,10.28.74,4.53,6.52,4.51,12.16-.59,18.13-1.6,1.87-2.5,4.31-3.93,6.34A9,9,0,0,1,75.13,193Z" transform="translate(-0.9 -0.9)"/><path class="cls-5" d="M86.25,104.88c4.76,6,5.2,13.6,1.41,19.71s-12,9.79-18.43,8.27c-1.91-.45-3.19-.95-1.47-3.21C74,121.46,80.05,113.2,86.25,104.88Z" transform="translate(-0.9 -0.9)"/><path class="cls-5" d="M251.6,167.75l5.53-4.38c16.57-13.05,20.37-34.17,9.3-52.21-2.09-3.4-4.65-6.5-6.78-9.88-2.44-3.85-4.27-7.9-3.06-12.7.53-2.12,1.43-3,3.28-1.37,6.45,5.84,13.69,6.72,22,4.74a25.81,25.81,0,0,1,16.66,1.69c3.84,1.77,6.81,1.14,10.22-.85,1.94-1.13,4.23-3.83,6.54-2a7.89,7.89,0,0,1,2.23,9.59c-1.81,3.75-.75,6.17,1.54,8.86a20.89,20.89,0,0,1,2.36,3.81c5.76,10.86,5.55,11.59-4.74,17.82-7,4.25-13.53,9.12-18.75,15.55-8.46,10.43-7.28,21.61,3.28,29.85,1.36,1.06,1.75,1.78.73,3.13-.1.13-.16.29-.26.43-2.75,4.12-4.59,8.87-8.44,12.22-7-3-15-.35-21.81-4.28a9.09,9.09,0,0,1-4-5C264,173.17,262.89,172,251.6,167.75Zm39.75-53.53c4.28,3.68,1.62,5.66-.51,7.7-2.37,2.27-4.77,2.86-7.28.08-1.3-1.44-3-1.72-4.29-.12s-.51,3.07.68,4.47c3.64,4.26,10.48,4.31,14.93-.59,2.71-3,4-2.92,6.72,0,4.59,5,11.87,4.83,15.33.29,1.11-1.45,1.71-3,.17-4.42a2.58,2.58,0,0,0-4,.25c-2.43,2.83-4.82,2.25-7.34.22-2.69-2.16-4.22-4.53-1.06-7.88ZM280.88,117c2.7-.35,4.29-1.94,4.07-4.9a4.06,4.06,0,0,0-4.63-4c-2.86.15-4.54,1.91-4.29,4.89C276.27,115.68,277.95,117,280.88,117ZM312.11,108c-2.68.28-4.32,1.79-4.37,4.43-.06,2.87,1.48,4.63,4.54,4.6a4.13,4.13,0,0,0,4.43-4.29C316.8,109.86,315,108.25,312.11,108Z" transform="translate(-0.9 -0.9)"/><path class="cls-5" d="M221.82,249.17c.38-19.1-1.25-37.81,7.05-55.33,3.33-7,8.3-12.83,13.88-18.1,4.07-3.85,15.15-1.19,16.86,4.76,3.73,12.94,13,16.06,24.81,16.16,6.73.06,10.17,3.52,10.34,10.19.2,7.82.16,15.64,0,23.46-.12,6.07-4.12,10.35-9.3,10.34s-9.08-4.2-9.26-10.4,0-12.65-.05-19c0-2,.16-4.27-2.74-4.39-3.1-.13-3.66,2.14-3.24,4.4,1.18,6.33-2.06,10.06-6.71,13.64C250.8,234.69,237.4,243.12,221.82,249.17Z" transform="translate(-0.9 -0.9)"/><path class="cls-5" d="M338,185.09a9.24,9.24,0,0,1-6,7.91c-3.67,1.44-7.28.85-9.48-2.18-3.6-4.95-6.47-10.42-9.73-15.62-.83-1.32,0-2.2.51-3.18,1.45-2.8,3.15-5.49,4.37-8.38,1.42-3.37,3.57-3.44,6.36-2C327.26,163.25,338,180.89,338,185.09Z" transform="translate(-0.9 -0.9)"/><path class="cls-6" d="M205.64,264.85c5.32,3.09,7,6.56,5.71,11.11-1.39,4.84-5,7.42-10,7.19a9.69,9.69,0,0,1-9-7.9c-.85-4.46,1.51-8.29,6.4-10.37,1.06,2-.06,3.21-1.31,4.73-2.3,2.8-2.2,5.93.49,8.45a5.51,5.51,0,0,0,7.71.33c2.89-2.32,3.36-5.37,1.21-8.38C205.71,268.43,204.63,267.13,205.64,264.85Z" transform="translate(-0.9 -0.9)"/><path class="cls-2" d="M114.5,110c-.24,2.69-1.73,4.36-4.38,4.46-2.9.11-4.77-1.59-4.79-4.49a4.17,4.17,0,0,1,4.33-4.46C112.6,105.38,114.16,107.12,114.5,110Z" transform="translate(-0.9 -0.9)"/><path class="cls-3" d="M202.12,106.87a31.1,31.1,0,0,1-17.89-6.24c-1.85-1.42-3.46-3.13-1.87-5.42s3.65-1.17,5.57.19c9.58,6.79,18.58,6.83,28,.08,1.92-1.37,3.85-2.68,5.6-.39s.14,4-1.71,5.42A31,31,0,0,1,202.12,106.87Z" transform="translate(-0.9 -0.9)"/><path class="cls-3" d="M219.49,86.88c-3.21-.34-5.28-2-5.27-5.32,0-3.06,1.91-4.9,5-5s5.05,1.56,5.23,4.68C224.63,84.59,222.73,86.38,219.49,86.88Z" transform="translate(-0.9 -0.9)"/><path class="cls-3" d="M189.2,81.38c0,3.56-1.93,5.3-4.92,5.37-3.34.08-5.29-2-5.21-5.36.08-3.14,2.2-4.89,5.23-4.83S189.17,78.41,189.2,81.38Z" transform="translate(-0.9 -0.9)"/><path class="cls-3" d="M227.27,49.18c-3.28-.2-5.2-1.9-5.19-5A4.95,4.95,0,0,1,232,44C232.07,47.2,230.26,48.84,227.27,49.18Z" transform="translate(-0.9 -0.9)"/><path class="cls-2" d="M291.36,114.22h13.38c-3.15,3.35-1.63,5.72,1.06,7.88,2.53,2,4.91,2.6,7.34-.22a2.58,2.58,0,0,1,4-.25c1.54,1.43.94,3-.17,4.42-3.46,4.54-10.73,4.68-15.33-.29-2.7-2.92-4-3-6.72,0-4.46,4.9-11.3,4.85-14.93.59-1.19-1.4-1.91-2.94-.68-4.47s3-1.33,4.29.12c2.51,2.79,4.91,2.19,7.28-.08C293,119.88,295.64,117.9,291.36,114.22Z" transform="translate(-0.9 -0.9)"/><path class="cls-2" d="M280.88,117c-2.93,0-4.62-1.35-4.84-4.06-.25-3,1.42-4.74,4.29-4.89a4.06,4.06,0,0,1,4.63,4C285.17,115.09,283.58,116.68,280.88,117Z" transform="translate(-0.9 -0.9)"/><path class="cls-2" d="M312.11,108c2.9.28,4.69,1.89,4.6,4.73a4.13,4.13,0,0,1-4.43,4.29c-3.07,0-4.6-1.73-4.54-4.6C307.79,109.76,309.43,108.25,312.11,108Z" transform="translate(-0.9 -0.9)"/></g></g></svg>